<?xml version="1.0" standalone="no"?>
<!DOCTYPE svg PUBLIC "-//W3C//DTD SVG 20010904//EN"
 "http://www.w3.org/TR/2001/REC-SVG-20010904/DTD/svg10.dtd">
<svg version="1.0" xmlns="http://www.w3.org/2000/svg"
 width="700.000000pt" height="700.000000pt" viewBox="0 0 700.000000 700.000000"
 preserveAspectRatio="xMidYMid meet">
<metadata>
Created by potrace 1.11, written by Peter Selinger 2001-2013
</metadata>
<g transform="translate(0.000000,700.000000) scale(0.100000,-0.100000)"
fill="#000000" stroke="none">
<path d="M6320 6880 c-41 -10 -124 -32 -185 -48 -60 -17 -155 -42 -210 -57
-55 -14 -125 -33 -155 -41 -30 -9 -62 -18 -70 -19 -8 -2 -42 -11 -75 -20 -33
-9 -91 -25 -130 -35 -38 -10 -254 -68 -480 -128 -454 -122 -410 -110 -980
-264 -225 -60 -417 -111 -425 -113 -8 -2 -67 -18 -130 -35 -63 -17 -274 -74
-467 -126 -194 -52 -513 -137 -708 -189 -196 -53 -390 -105 -433 -116 -42 -11
-84 -22 -92 -24 -18 -5 -162 -44 -445 -120 -115 -31 -232 -63 -260 -70 -27 -7
-86 -23 -130 -35 -220 -59 -271 -71 -332 -75 -210 -15 -420 -203 -449 -403
-32 -212 56 -385 246 -486 57 -31 296 -266 2051 -2023 1773 -1774 1990 -1995
2020 -2053 103 -197 336 -291 544 -220 116 40 231 142 295 261 17 32 29 59 26
59 -3 0 -1 12 5 27 5 15 12 56 15 92 3 41 71 313 180 720 97 360 177 661 179
670 2 9 17 66 34 126 27 100 71 260 167 620 19 72 37 141 40 155 2 14 9 36 14
50 5 14 34 122 65 240 31 118 76 287 100 375 24 88 73 273 110 410 37 138 80
297 95 355 45 164 136 505 164 610 30 115 84 316 124 465 16 61 53 198 82 305
29 107 76 283 105 390 79 290 84 327 60 445 -21 109 -125 237 -236 293 -109
55 -200 63 -329 32z m-520 -1085 c0 -7 -83 -320 -117 -440 -14 -49 -26 -97
-28 -105 -2 -8 -38 -143 -80 -300 -69 -257 -193 -719 -305 -1140 -23 -85 -62
-229 -87 -320 -24 -91 -46 -172 -48 -180 -2 -8 -22 -85 -45 -170 -23 -85 -43
-162 -45 -171 -2 -8 -20 -75 -40 -149 -20 -74 -39 -141 -41 -149 -5 -21 -17
-67 -46 -176 -14 -49 -76 -281 -138 -515 -62 -234 -116 -428 -119 -432 -3 -4
-707 695 -1565 1552 l-1558 1559 43 12 c24 7 49 14 54 15 6 2 93 25 195 53
185 49 446 119 550 147 30 9 96 26 145 39 50 13 225 60 390 105 165 45 307 83
315 85 21 5 334 88 545 145 44 12 103 27 130 35 119 31 1784 479 1825 490 53
15 70 17 70 10z"/>
</g>
</svg>
